<?xml version="1.0" encoding="UTF-8" standalone="no"?>
<!DOCTYPE svg PUBLIC "-//W3C//DTD SVG 1.1//EN"
 "http://www.w3.org/Graphics/SVG/1.1/DTD/svg11.dtd">
<!-- Generated by graphviz version 2.26.3 (20100126.1600)
 -->
<!-- Title: models_diagram Pages: 1 -->
<svg width="275pt" height="766pt"
 viewBox="0.00 0.00 275.00 766.00" xmlns="http://www.w3.org/2000/svg" xmlns:xlink="http://www.w3.org/1999/xlink">
<g id="graph1" class="graph" transform="scale(1 1) rotate(0) translate(4 762)">
<title>models_diagram</title>
<polygon fill="white" stroke="white" points="-4,5 -4,-762 272,-762 272,5 -4,5"/>
<!-- Message -->
<g id="node1" class="node"><title>Message</title>
<polyline fill="none" stroke="black" points="47.5,-1 206.5,-1 "/>
<path fill="none" stroke="black" d="M206.5,-1C212.5,-1 218.5,-7 218.5,-13"/>
<polyline fill="none" stroke="black" points="218.5,-13 218.5,-131 "/>
<path fill="none" stroke="black" d="M218.5,-131C218.5,-137 212.5,-143 206.5,-143"/>
<polyline fill="none" stroke="black" points="206.5,-143 47.5,-143 "/>
<path fill="none" stroke="black" d="M47.5,-143C41.5,-143 35.5,-137 35.5,-131"/>
<polyline fill="none" stroke="black" points="35.5,-131 35.5,-13 "/>
<path fill="none" stroke="black" d="M35.5,-13C35.5,-7 41.5,-1 47.5,-1"/>
<text text-anchor="middle" x="127" y="-126.4" font-family="Times Roman,serif" font-size="14.00">Message</text>
<polyline fill="none" stroke="black" points="35.5,-117 218.5,-117 "/>
<text text-anchor="start" x="43.5" y="-100.4" font-family="Times Roman,serif" font-size="14.00">id :integer</text>
<text text-anchor="start" x="43.5" y="-82.4" font-family="Times Roman,serif" font-size="14.00">conversation_id :integer</text>
<text text-anchor="start" x="43.5" y="-64.4" font-family="Times Roman,serif" font-size="14.00">user_id :integer</text>
<text text-anchor="start" x="43.5" y="-46.4" font-family="Times Roman,serif" font-size="14.00">body :text</text>
<text text-anchor="start" x="43.5" y="-28.4" font-family="Times Roman,serif" font-size="14.00">created_at :datetime</text>
<text text-anchor="start" x="43.5" y="-10.4" font-family="Times Roman,serif" font-size="14.00">updated_at :datetime</text>
</g>
<!-- User -->
<g id="node2" class="node"><title>User</title>
<polyline fill="none" stroke="black" points="12,-435 242,-435 "/>
<path fill="none" stroke="black" d="M242,-435C248,-435 254,-441 254,-447"/>
<polyline fill="none" stroke="black" points="254,-447 254,-745 "/>
<path fill="none" stroke="black" d="M254,-745C254,-751 248,-757 242,-757"/>
<polyline fill="none" stroke="black" points="242,-757 12,-757 "/>
<path fill="none" stroke="black" d="M12,-757C6,-757 0,-751 0,-745"/>
<polyline fill="none" stroke="black" points="0,-745 0,-447 "/>
<path fill="none" stroke="black" d="M0,-447C0,-441 6,-435 12,-435"/>
<text text-anchor="middle" x="127" y="-740.4" font-family="Times Roman,serif" font-size="14.00">User</text>
<polyline fill="none" stroke="black" points="0,-731 254,-731 "/>
<text text-anchor="start" x="8" y="-714.4" font-family="Times Roman,serif" font-size="14.00">id :integer</text>
<text text-anchor="start" x="8" y="-696.4" font-family="Times Roman,serif" font-size="14.00">email :string</text>
<text text-anchor="start" x="8" y="-678.4" font-family="Times Roman,serif" font-size="14.00">encrypted_password :string</text>
<text text-anchor="start" x="8" y="-660.4" font-family="Times Roman,serif" font-size="14.00">reset_password_token :string</text>
<text text-anchor="start" x="8" y="-642.4" font-family="Times Roman,serif" font-size="14.00">reset_password_sent_at :datetime</text>
<text text-anchor="start" x="8" y="-624.4" font-family="Times Roman,serif" font-size="14.00">remember_created_at :datetime</text>
<text text-anchor="start" x="8" y="-606.4" font-family="Times Roman,serif" font-size="14.00">sign_in_count :integer</text>
<text text-anchor="start" x="8" y="-588.4" font-family="Times Roman,serif" font-size="14.00">current_sign_in_at :datetime</text>
<text text-anchor="start" x="8" y="-570.4" font-family="Times Roman,serif" font-size="14.00">last_sign_in_at :datetime</text>
<text text-anchor="start" x="8" y="-552.4" font-family="Times Roman,serif" font-size="14.00">current_sign_in_ip :string</text>
<text text-anchor="start" x="8" y="-534.4" font-family="Times Roman,serif" font-size="14.00">last_sign_in_ip :string</text>
<text text-anchor="start" x="8" y="-516.4" font-family="Times Roman,serif" font-size="14.00">created_at :datetime</text>
<text text-anchor="start" x="8" y="-498.4" font-family="Times Roman,serif" font-size="14.00">updated_at :datetime</text>
<text text-anchor="start" x="8" y="-480.4" font-family="Times Roman,serif" font-size="14.00">name :string</text>
<text text-anchor="start" x="8" y="-462.4" font-family="Times Roman,serif" font-size="14.00">gender :string</text>
<text text-anchor="start" x="8" y="-444.4" font-family="Times Roman,serif" font-size="14.00">conversations_count :integer</text>
</g>
<!-- Conversation -->
<g id="node3" class="node"><title>Conversation</title>
<polyline fill="none" stroke="black" points="45,-183 209,-183 "/>
<path fill="none" stroke="black" d="M209,-183C215,-183 221,-189 221,-195"/>
<polyline fill="none" stroke="black" points="221,-195 221,-367 "/>
<path fill="none" stroke="black" d="M221,-367C221,-373 215,-379 209,-379"/>
<polyline fill="none" stroke="black" points="209,-379 45,-379 "/>
<path fill="none" stroke="black" d="M45,-379C39,-379 33,-373 33,-367"/>
<polyline fill="none" stroke="black" points="33,-367 33,-195 "/>
<path fill="none" stroke="black" d="M33,-195C33,-189 39,-183 45,-183"/>
<text text-anchor="middle" x="127" y="-362.4" font-family="Times Roman,serif" font-size="14.00">Conversation</text>
<polyline fill="none" stroke="black" points="33,-353 221,-353 "/>
<text text-anchor="start" x="41" y="-336.4" font-family="Times Roman,serif" font-size="14.00">id :integer</text>
<text text-anchor="start" x="41" y="-318.4" font-family="Times Roman,serif" font-size="14.00">user_id :integer</text>
<text text-anchor="start" x="41" y="-300.4" font-family="Times Roman,serif" font-size="14.00">target_user_id :integer</text>
<text text-anchor="start" x="41" y="-282.4" font-family="Times Roman,serif" font-size="14.00">body :text</text>
<text text-anchor="start" x="41" y="-264.4" font-family="Times Roman,serif" font-size="14.00">is_read :boolean</text>
<text text-anchor="start" x="41" y="-246.4" font-family="Times Roman,serif" font-size="14.00">is_archived :boolean</text>
<text text-anchor="start" x="41" y="-228.4" font-family="Times Roman,serif" font-size="14.00">created_at :datetime</text>
<text text-anchor="start" x="41" y="-210.4" font-family="Times Roman,serif" font-size="14.00">updated_at :datetime</text>
<text text-anchor="start" x="41" y="-192.4" font-family="Times Roman,serif" font-size="14.00">messages_count :integer</text>
</g>
<!-- User&#45;&gt;Conversation -->
<g id="edge2" class="edge"><title>User&#45;&gt;Conversation</title>
<path fill="none" stroke="#0fed4e" d="M124.871,-426.791C124.879,-417.05 124.92,-407.4 125,-398 125.024,-395.143 125.052,-392.247 125.083,-389.325"/>
<ellipse fill="none" stroke="#0fed4e" cx="124.872" cy="-430.99" rx="4" ry="4"/>
<polygon fill="#0fed4e" stroke="#0fed4e" points="125.083,-389.306 129.697,-379.359 125.14,-384.307 125.198,-379.307 125.198,-379.307 125.198,-379.307 125.14,-384.307 120.698,-379.255 125.083,-389.306 125.083,-389.306"/>
</g>
<!-- User&#45;&gt;Conversation -->
<g id="edge4" class="edge"><title>User&#45;&gt;Conversation</title>
<path fill="none" stroke="#a0e2e6" d="M127,-426.391C127,-413.959 127,-401.628 127,-389.711"/>
<ellipse fill="none" stroke="#a0e2e6" cx="127" cy="-430.809" rx="4" ry="4"/>
<polygon fill="#a0e2e6" stroke="#a0e2e6" points="127,-389.352 131.5,-379.352 127,-384.352 127,-379.352 127,-379.352 127,-379.352 127,-384.352 122.5,-379.352 127,-389.352 127,-389.352"/>
<text text-anchor="middle" x="197" y="-403.4" font-family="Times Roman,serif" font-size="14.00">inbox_conversations</text>
</g>
<!-- Conversation&#45;&gt;Message -->
<g id="edge6" class="edge"><title>Conversation&#45;&gt;Message</title>
<path fill="none" stroke="#686e51" d="M127,-174.772C127,-167.606 127,-160.451 127,-153.442"/>
<ellipse fill="none" stroke="#686e51" cx="127" cy="-178.926" rx="4" ry="4"/>
<polygon fill="#686e51" stroke="#686e51" points="127,-153.292 131.5,-143.292 127,-148.292 127,-143.292 127,-143.292 127,-143.292 127,-148.292 122.5,-143.292 127,-153.292 127,-153.292"/>
</g>
</g>
</svg>
